<?xml version="1.0" encoding="utf-8"?><svg xmlns="http://www.w3.org/2000/svg" xmlns:xlink="http://www.w3.org/1999/xlink"><symbol viewBox="0 0 24 24" id="email" xmlns="http://www.w3.org/2000/svg"><path d="M20.21 8.82 14 2.78a2.83 2.83 0 0 0-3.9 0l-6.21 6A2.6 2.6 0 0 0 3 10.71v8.58A2.75 2.75 0 0 0 5.78 22h12.44A2.75 2.75 0 0 0 21 19.29v-8.58a2.67 2.67 0 0 0-.79-1.89Zm-8.77-4.6a.83.83 0 0 1 1.12 0L18 9.5l-5.47 5.28a.83.83 0 0 1-1.12 0L6 9.5ZM19 19.29a.76.76 0 0 1-.78.71H5.78a.76.76 0 0 1-.78-.71v-7.94l4.05 3.9-1.66 1.6a1 1 0 0 0 0 1.41 1 1 0 0 0 .72.31 1 1 0 0 0 .69-.28l1.77-1.7a2.8 2.8 0 0 0 2.92 0l1.77 1.7a1 1 0 0 0 .69.28 1 1 0 0 0 .72-.31 1 1 0 0 0 0-1.41L15 15.25l4-3.9Z"/></symbol><symbol viewBox="0 0 24 24" id="github" xmlns="http://www.w3.org/2000/svg"><path d="M12 2.247a10 10 0 0 0-3.162 19.487c.5.088.687-.212.687-.475 0-.237-.012-1.025-.012-1.862-2.513.462-3.163-.613-3.363-1.175a3.636 3.636 0 0 0-1.025-1.413c-.35-.187-.85-.65-.013-.662a2.001 2.001 0 0 1 1.538 1.025 2.137 2.137 0 0 0 2.912.825 2.104 2.104 0 0 1 .638-1.338c-2.225-.25-4.55-1.112-4.55-4.937a3.892 3.892 0 0 1 1.025-2.688 3.594 3.594 0 0 1 .1-2.65s.837-.262 2.75 1.025a9.427 9.427 0 0 1 5 0c1.912-1.3 2.75-1.025 2.75-1.025a3.593 3.593 0 0 1 .1 2.65 3.869 3.869 0 0 1 1.025 2.688c0 3.837-2.338 4.687-4.563 4.937a2.368 2.368 0 0 1 .675 1.85c0 1.338-.012 2.413-.012 2.75 0 .263.187.575.687.475A10.005 10.005 0 0 0 12 2.247Z"/></symbol><symbol viewBox="0 0 24 24" id="linkedin" xmlns="http://www.w3.org/2000/svg"><path d="M20.47 2H3.53a1.45 1.45 0 0 0-1.47 1.43v17.14A1.45 1.45 0 0 0 3.53 22h16.94a1.45 1.45 0 0 0 1.47-1.43V3.43A1.45 1.45 0 0 0 20.47 2ZM8.09 18.74h-3v-9h3ZM6.59 8.48a1.56 1.56 0 1 1 0-3.12 1.57 1.57 0 1 1 0 3.12Zm12.32 10.26h-3v-4.83c0-1.21-.43-2-1.52-2A1.65 1.65 0 0 0 12.85 13a2 2 0 0 0-.1.73v5h-3v-9h3V11a3 3 0 0 1 2.71-1.5c2 0 3.45 1.29 3.45 4.06Z"/></symbol><symbol viewBox="0 0 24 24" id="telegram" xmlns="http://www.w3.org/2000/svg"><path d="M11.994 2a10 10 0 1 0 10 10 10 10 0 0 0-10-10Zm3.18 15.152a.705.705 0 0 1-1.002.352l-2.715-2.11-1.742 1.608a.3.3 0 0 1-.285.039l.334-2.989.01.009.007-.059s4.885-4.448 5.084-4.637c.202-.189.135-.23.135-.23.012-.23-.361 0-.361 0l-6.473 4.164-2.695-.918s-.414-.148-.453-.475c-.041-.324.466-.5.466-.5l10.717-4.258s.881-.392.881.258Z"/></symbol></svg>